<?xml version="1.0" encoding="UTF-8"?>
<svg id="Layer_1" data-name="Layer 1" xmlns="http://www.w3.org/2000/svg" viewBox="0 0 259.66 283.11">
  <defs>
    <style>
      .cls-1 {
        fill: #2f2e41;
      }

      .cls-2 {
        fill: #fff;
      }

      .cls-3 {
        fill: #4bb3fd;
      }

      .cls-4 {
        fill: none;
        stroke: #090814;
        stroke-miterlimit: 10;
        stroke-width: 2px;
      }
    </style>
  </defs>
  <circle class="cls-3" cx="129.83" cy="140.74" r="129.83"/>
  <g>
    <path class="cls-1" d="m206.09,258.87l-84.56,23.49c-11.02,3.06-22.47-3.41-25.53-14.43L35.4,49.79c-3.06-11.02,3.41-22.47,14.43-25.53L134.39.76c11.02-3.06,22.47,3.41,25.53,14.43l60.6,218.15c3.06,11.02-3.41,22.47-14.43,25.53h0Z"/>
    <path class="cls-2" d="m204.68,253.45l-84.73,23.54c-8.26,2.29-16.86-2.56-19.16-10.82L40.08,47.6c-2.29-8.26,2.56-16.86,10.82-19.16L135.64,4.91c8.26-2.29,16.86,2.56,19.16,10.82l60.72,218.56c2.29,8.26-2.56,16.86-10.82,19.16h0Z"/>
    <path class="cls-1" d="m110.45,27.21l-26.96,7.49c-3.11.86-6.34-.96-7.21-4.07s.96-6.34,4.07-7.21l26.96-7.49c3.11-.86,6.34.96,7.21,4.07s-.96,6.34-4.07,7.21Z"/>
    <line class="cls-4" x1="70.89" y1="84.15" x2="99.96" y2="76.07"/>
    <line class="cls-4" x1="73.95" y1="95.17" x2="135.11" y2="78.18"/>
    <line class="cls-4" x1="72.57" y1="90.22" x2="160.19" y2="65.88"/>
    <circle class="cls-3" cx="65.04" cy="88.75" r="5.15"/>
    <line class="cls-4" x1="79.95" y1="116.78" x2="109.03" y2="108.7"/>
    <line class="cls-4" x1="83.01" y1="127.8" x2="144.18" y2="110.81"/>
    <line class="cls-4" x1="81.64" y1="122.84" x2="169.25" y2="98.5"/>
    <circle class="cls-3" cx="74.1" cy="121.38" r="5.15"/>
    <line class="cls-4" x1="89.01" y1="149.4" x2="118.09" y2="141.33"/>
    <line class="cls-4" x1="92.08" y1="160.42" x2="153.24" y2="143.43"/>
    <line class="cls-4" x1="90.7" y1="155.46" x2="178.31" y2="131.13"/>
    <circle class="cls-3" cx="83.17" cy="153.99" r="5.15"/>
  </g>
</svg>