<?xml version="1.0" encoding="UTF-8"?>
<svg id="Layer_1" data-name="Layer 1" xmlns="http://www.w3.org/2000/svg" viewBox="0 0 1119.61 699">
  <defs>
    <style>
      .cls-1 {
        fill: #2f2e41;
      }

      .cls-2 {
        fill: #fff;
      }

      .cls-3 {
        opacity: .4;
      }

      .cls-3, .cls-4, .cls-5, .cls-6 {
        isolation: isolate;
      }

      .cls-3, .cls-7, .cls-6 {
        fill: #4bb3fd;
      }

      .cls-8 {
        fill: #3f3d56;
      }

      .cls-9 {
        fill: none;
        stroke: #2f2e41;
        stroke-miterlimit: 10;
        stroke-width: 2px;
      }

      .cls-4 {
        opacity: .2;
      }

      .cls-5 {
        opacity: .1;
      }

      .cls-6 {
        opacity: .8;
      }

      .cls-10 {
        fill: #a8a8a8;
      }

      .cls-11 {
        fill: #f2f2f2;
      }
    </style>
  </defs>
  <circle class="cls-11" cx="292.61" cy="213" r="213"/>
  <path class="cls-1" d="m0,51.14c0,77.5,48.62,140.21,108.7,140.21"/>
  <path class="cls-7" d="m108.7,191.35c0-78.37,54.26-141.78,121.3-141.78"/>
  <path class="cls-7" d="m39.38,58.17c0,73.61,31,133.18,69.32,133.18"/>
  <path class="cls-1" d="m108.7,191.35c0-100.14,62.71-181.17,140.21-181.17"/>
  <path class="cls-10" d="m85.83,192.34s15.42-.47,20.06-3.78,23.71-7.26,24.87-1.95,23.17,26.39,5.76,26.53-40.44-2.71-45.08-5.54-5.61-15.26-5.61-15.26Z"/>
  <path class="cls-4" d="m136.83,211.28c-17.4.14-40.44-2.71-45.08-5.54-3.53-2.15-4.94-9.87-5.41-13.43-.33.01-.51.02-.51.02,0,0,.98,12.43,5.61,15.26s27.67,5.68,45.08,5.54c5.02-.04,6.76-1.83,6.66-4.48-.7,1.6-2.61,2.6-6.35,2.63Z"/>
  <ellipse class="cls-8" cx="198.61" cy="424.5" rx="187" ry="25.44"/>
  <ellipse class="cls-5" cx="198.61" cy="424.5" rx="157" ry="21.36"/>
  <ellipse class="cls-8" cx="836.61" cy="660.5" rx="283" ry="38.5"/>
  <ellipse class="cls-8" cx="310.61" cy="645.5" rx="170" ry="23.13"/>
  <path class="cls-9" d="m462.61,626c90,23,263-30,282-90"/>
  <path class="cls-9" d="m309.61,259s130-36,138,80-107,149-17,172"/>
  <path class="cls-9" d="m184.01,537.28s39.07-10.82,41.48,24.04c2.4,34.86-32.16,44.78-5.11,51.7"/>
  <path class="cls-1" d="m778.7,563.24l-7.88,50.3s-38.78,20.6-11.51,21.21,155.73,0,155.73,0c0,0,24.84,0-14.54-21.81l-7.88-52.72-113.92,3.03Z"/>
  <path class="cls-5" d="m753.83,634.2c6.19-5.51,17-11.25,17-11.25l7.88-50.3,113.92.11,7.88,49.58c9.18,5.09,14.87,8.99,18.2,11.98,5.06-1.15,10.59-5.44-18.2-21.39l-7.88-52.72-113.92,3.03-7.88,50.3s-32.59,17.31-17,20.66Z"/>
  <rect class="cls-1" x="578.43" y="212.69" width="513.25" height="357.52" rx="18.05" ry="18.05"/>
  <rect class="cls-8" x="595.7" y="231.78" width="478.71" height="267.84"/>
  <circle class="cls-11" cx="835.06" cy="223.29" r="3.03"/>
  <path class="cls-1" d="m1091.69,520.82v31.34c0,9.97-8.08,18.04-18.04,18.05h-477.17c-9.97,0-18.04-8.08-18.05-18.04h0v-31.35h513.25Z"/>
  <polygon class="cls-1" points="968.98 667.47 968.98 673.53 642.97 673.53 642.97 668.68 643.42 667.47 651.45 645.65 962.31 645.65 968.98 667.47"/>
  <path class="cls-1" d="m1094.44,661.53c-.59,2.54-2.84,5.22-7.9,7.75-18.18,9.09-55.14-2.42-55.14-2.42,0,0-28.48-4.85-28.48-17.57.8-.55,1.63-1.04,2.5-1.48,7.64-4.04,32.98-14.02,77.92.42,3.31,1.04,6.27,2.98,8.54,5.6,1.82,2.13,3.25,4.84,2.57,7.71Z"/>
  <path class="cls-5" d="m1094.44,661.53c-22.25,8.53-42.08,9.16-62.44-4.97-10.27-7.13-19.59-8.89-26.59-8.76,7.64-4.04,32.98-14.02,77.92.42,3.31,1.04,6.27,2.98,8.54,5.6,1.82,2.13,3.25,4.84,2.57,7.71Z"/>
  <ellipse class="cls-11" cx="1066.54" cy="654.13" rx="7.88" ry="2.42"/>
  <circle class="cls-11" cx="835.06" cy="545.67" r="11.51"/>
  <polygon class="cls-5" points="968.98 667.47 968.98 673.53 642.97 673.53 642.97 668.68 643.42 667.47 968.98 667.47"/>
  <rect class="cls-1" x="108.61" y="159" width="208" height="242"/>
  <rect class="cls-8" x="87.61" y="135" width="250" height="86"/>
  <rect class="cls-8" x="87.61" y="237" width="250" height="86"/>
  <rect class="cls-8" x="87.61" y="339" width="250" height="86"/>
  <rect class="cls-3" x="271.61" y="150" width="16" height="16"/>
  <rect class="cls-6" x="294.61" y="150" width="16" height="16"/>
  <rect class="cls-7" x="317.61" y="150" width="16" height="16"/>
  <rect class="cls-3" x="271.61" y="251" width="16" height="16"/>
  <rect class="cls-6" x="294.61" y="251" width="16" height="16"/>
  <rect class="cls-7" x="317.61" y="251" width="16" height="16"/>
  <rect class="cls-3" x="271.61" y="352" width="16" height="16"/>
  <rect class="cls-6" x="294.61" y="352" width="16" height="16"/>
  <rect class="cls-7" x="317.61" y="352" width="16" height="16"/>
  <circle class="cls-1" cx="316.61" cy="538" r="79"/>
  <rect class="cls-1" x="280.61" y="600" width="24" height="43"/>
  <rect class="cls-1" x="328.61" y="600" width="24" height="43"/>
  <ellipse class="cls-1" cx="300.61" cy="643.5" rx="20" ry="7.5"/>
  <ellipse class="cls-1" cx="348.61" cy="642.5" rx="20" ry="7.5"/>
  <circle class="cls-2" cx="318.61" cy="518" r="27"/>
  <circle class="cls-8" cx="318.61" cy="518" r="9"/>
  <path class="cls-7" d="m239.98,464.53c-6.38-28.57,14.01-57.43,45.54-64.47s62.27,10.41,68.64,38.98-14.52,39.1-46.05,46.14-61.76,7.92-68.14-20.65Z"/>
  <ellipse class="cls-1" cx="385.82" cy="510.84" rx="39.5" ry="12.4" transform="translate(-169.88 193.02) rotate(-23.17)"/>
  <ellipse class="cls-1" cx="237.82" cy="563.84" rx="39.5" ry="12.4" transform="translate(-202.68 139.06) rotate(-23.17)"/>
  <path class="cls-2" d="m362.61,561c0,7.73-19.91,23-42,23s-43-14.27-43-22,20.91-6,43-6,42-2.73,42,5Z"/>
</svg>